# xmcd
#
# Track frame offsets: 
#        150
#        17423
#        40289
#        58909
#        75248
#        99459
#        113724
#        136391
#        154990
#        170468
#        186401
#        210447
#        225686
#        248770
#        272962
#        293789
#        324365
#        341972
#
# Disc length: 4752 seconds
#
# Revision: 0
# Processed by: cddbd v1.5.2PL0 Copyright (c) Steve Scherf et al.
# Submitted via: ExactAudioCopy v1.0b3
#
DISCID=fe128e12
DTITLE=Jeff Liberman - In the Morning
DYEAR=2011
DGENRE=Blues
TTITLE0=Tonight
TTITLE1=The Two Of Us
TTITLE2=Passion Play
TTITLE3=If You Want Love
TTITLE4=Hold On, I'm Comin'
TTITLE5=Potentialize
TTITLE6=In The Morning
TTITLE7=Satisfy Me
TTITLE8=Vibes I Get From You
TTITLE9=Change Your Life
TTITLE10=I Need You Now
TTITLE11=It's A Funk Thing
TTITLE12=A Time For Reason
TTITLE13=This Fight
TTITLE14=Funk N 'a'
TTITLE15=I Can Love You
TTITLE16=Where There's A Will
TTITLE17=Drivin' Blues
EXTD=
EXTT0=
EXTT1=
EXTT2=
EXTT3=
EXTT4=
EXTT5=
EXTT6=
EXTT7=
EXTT8=
EXTT9=
EXTT10=
EXTT11=
EXTT12=
EXTT13=
EXTT14=
EXTT15=
EXTT16=
EXTT17=
PLAYORDER=
